<?xml version="1.0" standalone="yes"?>
<!-- SVG graphic -->
<svg xmlns='http://www.w3.org/2000/svg' xmlns:xlink='http://www.w3.org/1999/xlink'
width="70px" height="70px" preserveAspectRatio="xMinYMin meet" viewBox="0 0 70 70" version="1.1">
<rect x="5" y="0" width="2.5" height="2.5" fill="rgb(191,0,63)" tooltip="enable"><title>(1,0 1310)</title></rect><rect x="10" y="0" width="2.5" height="2.5" fill="rgb(113,0,141)" tooltip="enable"><title>(2,0 775)</title></rect><rect x="15" y="0" width="2.5" height="2.5" fill="rgb(79,0,175)" tooltip="enable"><title>(3,0 544)</title></rect><rect x="20" y="0" width="2.5" height="2.5" fill="rgb(55,0,199)" tooltip="enable"><title>(4,0 382)</title></rect><rect x="25" y="0" width="2.5" height="2.5" fill="rgb(33,0,221)" tooltip="enable"><title>(5,0 228)</title></rect><rect x="30" y="0" width="2.5" height="2.5" fill="rgb(27,0,227)" tooltip="enable"><title>(6,0 189)</title></rect><rect x="35" y="0" width="2.5" height="2.5" fill="rgb(26,0,228)" tooltip="enable"><title>(7,0 180)</title></rect><rect x="40" y="0" width="2.5" height="2.5" fill="rgb(23,0,231)" tooltip="enable"><title>(8,0 158)</title></rect><rect x="10" y="5" width="2.5" height="2.5" fill="rgb(251,0,3)" tooltip="enable"><title>(2,1 1721)</title></rect><rect x="15" y="5" width="2.5" height="2.5" fill="rgb(179,0,75)" tooltip="enable"><title>(3,1 1227)</title></rect><rect x="20" y="5" width="2.5" height="2.5" fill="rgb(121,0,133)" tooltip="enable"><title>(4,1 832)</title></rect><rect x="25" y="5" width="2.5" height="2.5" fill="rgb(73,0,181)" tooltip="enable"><title>(5,1 499)</title></rect><rect x="30" y="5" width="2.5" height="2.5" fill="rgb(51,0,203)" tooltip="enable"><title>(6,1 350)</title></rect><rect x="35" y="5" width="2.5" height="2.5" fill="rgb(42,0,212)" tooltip="enable"><title>(7,1 290)</title></rect><rect x="40" y="5" width="2.5" height="2.5" fill="rgb(24,0,230)" tooltip="enable"><title>(8,1 165)</title></rect><rect x="50" y="5" width="2.5" height="2.5" fill="rgb(9,0,245)" tooltip="enable"><title>(10,1 62)</title></rect><rect x="15" y="10" width="2.5" height="2.5" fill="rgb(255,0,0)" tooltip="enable"><title>(3,2 1742)</title></rect><rect x="20" y="10" width="2.5" height="2.5" fill="rgb(161,0,93)" tooltip="enable"><title>(4,2 1106)</title></rect><rect x="25" y="10" width="2.5" height="2.5" fill="rgb(103,0,151)" tooltip="enable"><title>(5,2 708)</title></rect><rect x="30" y="10" width="2.5" height="2.5" fill="rgb(80,0,174)" tooltip="enable"><title>(6,2 553)</title></rect><rect x="35" y="10" width="2.5" height="2.5" fill="rgb(61,0,193)" tooltip="enable"><title>(7,2 417)</title></rect><rect x="40" y="10" width="2.5" height="2.5" fill="rgb(33,0,221)" tooltip="enable"><title>(8,2 231)</title></rect><rect x="45" y="10" width="2.5" height="2.5" fill="rgb(7,0,247)" tooltip="enable"><title>(9,2 54)</title></rect><rect x="50" y="10" width="2.5" height="2.5" fill="rgb(6,0,248)" tooltip="enable"><title>(10,2 43)</title></rect><rect x="20" y="15" width="2.5" height="2.5" fill="rgb(204,0,50)" tooltip="enable"><title>(4,3 1399)</title></rect><rect x="25" y="15" width="2.5" height="2.5" fill="rgb(123,0,131)" tooltip="enable"><title>(5,3 843)</title></rect><rect x="30" y="15" width="2.5" height="2.5" fill="rgb(98,0,156)" tooltip="enable"><title>(6,3 674)</title></rect><rect x="35" y="15" width="2.5" height="2.5" fill="rgb(67,0,187)" tooltip="enable"><title>(7,3 462)</title></rect><rect x="40" y="15" width="2.5" height="2.5" fill="rgb(41,0,213)" tooltip="enable"><title>(8,3 285)</title></rect><rect x="45" y="15" width="2.5" height="2.5" fill="rgb(7,0,247)" tooltip="enable"><title>(9,3 51)</title></rect><rect x="50" y="15" width="2.5" height="2.5" fill="rgb(6,0,248)" tooltip="enable"><title>(10,3 43)</title></rect><rect x="25" y="20" width="2.5" height="2.5" fill="rgb(181,0,73)" tooltip="enable"><title>(5,4 1241)</title></rect><rect x="30" y="20" width="2.5" height="2.5" fill="rgb(128,0,126)" tooltip="enable"><title>(6,4 878)</title></rect><rect x="35" y="20" width="2.5" height="2.5" fill="rgb(104,0,150)" tooltip="enable"><title>(7,4 715)</title></rect><rect x="40" y="20" width="2.5" height="2.5" fill="rgb(58,0,196)" tooltip="enable"><title>(8,4 403)</title></rect><rect x="45" y="20" width="2.5" height="2.5" fill="rgb(8,0,246)" tooltip="enable"><title>(9,4 61)</title></rect><rect x="50" y="20" width="2.5" height="2.5" fill="rgb(12,0,242)" tooltip="enable"><title>(10,4 84)</title></rect><rect x="30" y="25" width="2.5" height="2.5" fill="rgb(174,0,80)" tooltip="enable"><title>(6,5 1192)</title></rect><rect x="35" y="25" width="2.5" height="2.5" fill="rgb(111,0,143)" tooltip="enable"><title>(7,5 760)</title></rect><rect x="40" y="25" width="2.5" height="2.5" fill="rgb(70,0,184)" tooltip="enable"><title>(8,5 480)</title></rect><rect x="45" y="25" width="2.5" height="2.5" fill="rgb(13,0,241)" tooltip="enable"><title>(9,5 92)</title></rect><rect x="50" y="25" width="2.5" height="2.5" fill="rgb(10,0,244)" tooltip="enable"><title>(10,5 71)</title></rect><rect x="35" y="30" width="2.5" height="2.5" fill="rgb(167,0,87)" tooltip="enable"><title>(7,6 1144)</title></rect><rect x="40" y="30" width="2.5" height="2.5" fill="rgb(93,0,161)" tooltip="enable"><title>(8,6 642)</title></rect><rect x="45" y="30" width="2.5" height="2.5" fill="rgb(21,0,233)" tooltip="enable"><title>(9,6 148)</title></rect><rect x="50" y="30" width="2.5" height="2.5" fill="rgb(15,0,239)" tooltip="enable"><title>(10,6 103)</title></rect><rect x="40" y="35" width="2.5" height="2.5" fill="rgb(166,0,88)" tooltip="enable"><title>(8,7 1138)</title></rect><rect x="45" y="35" width="2.5" height="2.5" fill="rgb(30,0,224)" tooltip="enable"><title>(9,7 205)</title></rect><rect x="50" y="35" width="2.5" height="2.5" fill="rgb(32,0,222)" tooltip="enable"><title>(10,7 220)</title></rect><rect x="45" y="40" width="2.5" height="2.5" fill="rgb(62,0,192)" tooltip="enable"><title>(9,8 425)</title></rect><rect x="50" y="40" width="2.5" height="2.5" fill="rgb(50,0,204)" tooltip="enable"><title>(10,8 347)</title></rect><rect x="50" y="45" width="2.5" height="2.5" fill="rgb(23,0,231)" tooltip="enable"><title>(10,9 162)</title></rect><text x="60" y="5" font-size="5" fill="black">0</text>
<text x="60" y="50" font-size="5" fill="black">11</text>
<polyline points="60,10,60,45" stroke="black" stroke-width="1" fill="none"/>
<text x="5" y="60" font-size="5" fill="black">0</text>
<text x="50" y="60" font-size="5" fill="black">11</text>
<polyline points="10,60,45,60" stroke="black" stroke-width="1" fill="none"/>
</svg>