<?xml version="1.0" encoding="UTF-8" standalone="no"?>
<!DOCTYPE svg PUBLIC "-//W3C//DTD SVG 1.1//EN"
 "http://www.w3.org/Graphics/SVG/1.1/DTD/svg11.dtd">
<!-- Generated by graphviz version 2.40.1 (20161225.0304)
 -->
<!-- Title: 1 Pages: 1 -->
<svg width="232pt" height="303pt"
 viewBox="0.00 0.00 231.54 303.45" xmlns="http://www.w3.org/2000/svg" xmlns:xlink="http://www.w3.org/1999/xlink">
<g id="graph0" class="graph" transform="scale(1 1) rotate(0) translate(4 299.4463)">
<title>1</title>
<polygon fill="#ffffff" stroke="transparent" points="-4,4 -4,-299.4463 227.5411,-299.4463 227.5411,4 -4,4"/>
<!-- n9 -->
<g id="node1" class="node">
<title>n9</title>
<ellipse fill="none" stroke="#000000" cx="30.9862" cy="-267.8691" rx="19.4965" ry="19.4965"/>
<text text-anchor="middle" x="30.9862" y="-264.1691" font-family="Times,serif" font-size="14.00" fill="#000000">n9</text>
</g>
<!-- n10 -->
<g id="node2" class="node">
<title>n10</title>
<ellipse fill="none" stroke="#000000" cx="133.9463" cy="-271.3984" rx="24.0958" ry="24.0958"/>
<text text-anchor="middle" x="133.9463" y="-267.6984" font-family="Times,serif" font-size="14.00" fill="#000000">n10</text>
</g>
<!-- n9&#45;&#45;n10 -->
<g id="edge1" class="edge">
<title>n9&#45;&#45;n10</title>
<path fill="none" stroke="#000000" d="M50.838,-268.5496C67.6674,-269.1265 91.8597,-269.9558 109.8067,-270.5709"/>
</g>
<!-- n8 -->
<g id="node3" class="node">
<title>n8</title>
<ellipse fill="none" stroke="#000000" cx="69.411" cy="-84.916" rx="19.4965" ry="19.4965"/>
<text text-anchor="middle" x="69.411" y="-81.216" font-family="Times,serif" font-size="14.00" fill="#000000">n8</text>
</g>
<!-- n8&#45;&#45;n9 -->
<g id="edge3" class="edge">
<title>n8&#45;&#45;n9</title>
<path fill="none" stroke="#000000" d="M65.3715,-104.1494C57.9917,-139.2871 42.4117,-213.4688 35.0293,-248.6189"/>
</g>
<!-- n8&#45;&#45;n10 -->
<g id="edge2" class="edge">
<title>n8&#45;&#45;n10</title>
<path fill="none" stroke="#000000" d="M75.8348,-103.4784C87.7267,-137.8415 113.1335,-211.2575 126.0521,-248.5874"/>
</g>
<!-- n7 -->
<g id="node4" class="node">
<title>n7</title>
<ellipse fill="none" stroke="#000000" cx="92.8918" cy="-196.4002" rx="19.4965" ry="19.4965"/>
<text text-anchor="middle" x="92.8918" y="-192.7002" font-family="Times,serif" font-size="14.00" fill="#000000">n7</text>
</g>
<!-- n7&#45;&#45;n9 -->
<g id="edge5" class="edge">
<title>n7&#45;&#45;n9</title>
<path fill="none" stroke="#000000" d="M80.065,-211.2086C69.4404,-223.4745 54.4167,-240.8191 43.7967,-253.0797"/>
</g>
<!-- n7&#45;&#45;n10 -->
<g id="edge4" class="edge">
<title>n7&#45;&#45;n10</title>
<path fill="none" stroke="#000000" d="M102.4137,-213.7948C108.3356,-224.6128 115.9923,-238.6001 122.2778,-250.0825"/>
</g>
<!-- n7&#45;&#45;n8 -->
<g id="edge6" class="edge">
<title>n7&#45;&#45;n8</title>
<path fill="none" stroke="#000000" d="M88.8553,-177.2354C84.5545,-156.8155 77.7841,-124.6707 73.4734,-104.2039"/>
</g>
<!-- n6 -->
<g id="node5" class="node">
<title>n6</title>
<ellipse fill="none" stroke="#000000" cx="173.0976" cy="-210.6766" rx="19.4965" ry="19.4965"/>
<text text-anchor="middle" x="173.0976" y="-206.9766" font-family="Times,serif" font-size="14.00" fill="#000000">n6</text>
</g>
<!-- n6&#45;&#45;n9 -->
<g id="edge8" class="edge">
<title>n6&#45;&#45;n9</title>
<path fill="none" stroke="#000000" d="M154.8099,-218.0364C127.5227,-229.0181 76.45,-249.5723 49.2037,-260.5375"/>
</g>
<!-- n6&#45;&#45;n10 -->
<g id="edge7" class="edge">
<title>n6&#45;&#45;n10</title>
<path fill="none" stroke="#000000" d="M162.3993,-227.2691C157.6901,-234.5729 152.1112,-243.2254 147.1465,-250.9254"/>
</g>
<!-- n6&#45;&#45;n8 -->
<g id="edge9" class="edge">
<title>n6&#45;&#45;n8</title>
<path fill="none" stroke="#000000" d="M160.3836,-195.2559C140.3752,-170.9879 101.7763,-124.1717 81.9051,-100.0701"/>
</g>
<!-- n6&#45;&#45;n7 -->
<g id="edge10" class="edge">
<title>n6&#45;&#45;n7</title>
<path fill="none" stroke="#000000" d="M153.682,-207.2207C141.0717,-204.9761 124.7032,-202.0626 112.1286,-199.8243"/>
</g>
<!-- n5 -->
<g id="node6" class="node">
<title>n5</title>
<ellipse fill="none" stroke="#000000" cx="24.9371" cy="-176.4757" rx="19.4965" ry="19.4965"/>
<text text-anchor="middle" x="24.9371" y="-172.7757" font-family="Times,serif" font-size="14.00" fill="#000000">n5</text>
</g>
<!-- n5&#45;&#45;n9 -->
<g id="edge12" class="edge">
<title>n5&#45;&#45;n9</title>
<path fill="none" stroke="#000000" d="M26.2497,-196.3067C27.2713,-211.7415 28.6814,-233.0464 29.697,-248.3908"/>
</g>
<!-- n5&#45;&#45;n10 -->
<g id="edge11" class="edge">
<title>n5&#45;&#45;n10</title>
<path fill="none" stroke="#000000" d="M40.0944,-189.6743C59.8679,-206.8926 94.4354,-236.9932 115.6468,-255.4637"/>
</g>
<!-- n5&#45;&#45;n8 -->
<g id="edge13" class="edge">
<title>n5&#45;&#45;n8</title>
<path fill="none" stroke="#000000" d="M33.5121,-158.8221C41.3874,-142.6089 52.9953,-118.7115 60.8623,-102.5155"/>
</g>
<!-- n5&#45;&#45;n7 -->
<g id="edge14" class="edge">
<title>n5&#45;&#45;n7</title>
<path fill="none" stroke="#000000" d="M43.8663,-182.0258C53.2916,-184.7893 64.6529,-188.1205 74.0642,-190.8799"/>
</g>
<!-- n5&#45;&#45;n6 -->
<g id="edge15" class="edge">
<title>n5&#45;&#45;n6</title>
<path fill="none" stroke="#000000" d="M44.0032,-180.8769C72.2956,-187.4078 125.1142,-199.6003 153.6342,-206.1837"/>
</g>
<!-- n4 -->
<g id="node7" class="node">
<title>n4</title>
<ellipse fill="none" stroke="#000000" cx="19.4983" cy="-116.6104" rx="19.4965" ry="19.4965"/>
<text text-anchor="middle" x="19.4983" y="-112.9104" font-family="Times,serif" font-size="14.00" fill="#000000">n4</text>
</g>
<!-- n4&#45;&#45;n9 -->
<g id="edge17" class="edge">
<title>n4&#45;&#45;n9</title>
<path fill="none" stroke="#000000" d="M20.9766,-136.0752C23.1703,-164.9592 27.2657,-218.8823 29.4771,-247.9988"/>
</g>
<!-- n4&#45;&#45;n10 -->
<g id="edge16" class="edge">
<title>n4&#45;&#45;n10</title>
<path fill="none" stroke="#000000" d="M31.102,-132.3041C52.1852,-160.8187 96.7135,-221.0421 119.6399,-252.0494"/>
</g>
<!-- n4&#45;&#45;n8 -->
<g id="edge18" class="edge">
<title>n4&#45;&#45;n8</title>
<path fill="none" stroke="#000000" d="M36.1185,-106.0566C41.4499,-102.6712 47.3548,-98.9216 52.6932,-95.5318"/>
</g>
<!-- n4&#45;&#45;n7 -->
<g id="edge19" class="edge">
<title>n4&#45;&#45;n7</title>
<path fill="none" stroke="#000000" d="M32.9598,-131.2451C46.2023,-145.6417 66.3027,-167.4938 79.5157,-181.8583"/>
</g>
<!-- n4&#45;&#45;n6 -->
<g id="edge20" class="edge">
<title>n4&#45;&#45;n6</title>
<path fill="none" stroke="#000000" d="M36.2285,-126.8562C65.7746,-144.9506 126.8565,-182.358 156.388,-200.4434"/>
</g>
<!-- n4&#45;&#45;n5 -->
<g id="edge21" class="edge">
<title>n4&#45;&#45;n5</title>
<path fill="none" stroke="#000000" d="M21.2792,-136.2125C21.8864,-142.8962 22.5648,-150.363 23.1708,-157.034"/>
</g>
<!-- n3 -->
<g id="node8" class="node">
<title>n3</title>
<ellipse fill="none" stroke="#000000" cx="204.0428" cy="-163.6801" rx="19.4965" ry="19.4965"/>
<text text-anchor="middle" x="204.0428" y="-159.9801" font-family="Times,serif" font-size="14.00" fill="#000000">n3</text>
</g>
<!-- n3&#45;&#45;n9 -->
<g id="edge23" class="edge">
<title>n3&#45;&#45;n9</title>
<path fill="none" stroke="#000000" d="M187.1343,-173.8599C153.9649,-193.8296 80.7275,-237.9223 47.7086,-257.8014"/>
</g>
<!-- n3&#45;&#45;n10 -->
<g id="edge22" class="edge">
<title>n3&#45;&#45;n10</title>
<path fill="none" stroke="#000000" d="M193.3966,-180.0402C180.9876,-199.1093 160.4768,-230.6286 147.0872,-251.2046"/>
</g>
<!-- n3&#45;&#45;n8 -->
<g id="edge24" class="edge">
<title>n3&#45;&#45;n8</title>
<path fill="none" stroke="#000000" d="M186.9916,-153.7045C161.0945,-138.5539 112.1383,-109.9129 86.3237,-94.8106"/>
</g>
<!-- n3&#45;&#45;n7 -->
<g id="edge25" class="edge">
<title>n3&#45;&#45;n7</title>
<path fill="none" stroke="#000000" d="M185.1875,-169.2306C164.7483,-175.2474 132.315,-184.795 111.8396,-190.8225"/>
</g>
<!-- n3&#45;&#45;n6 -->
<g id="edge26" class="edge">
<title>n3&#45;&#45;n6</title>
<path fill="none" stroke="#000000" d="M193.2197,-180.1172C190.2218,-184.6699 186.9673,-189.6126 183.9669,-194.1693"/>
</g>
<!-- n3&#45;&#45;n5 -->
<g id="edge27" class="edge">
<title>n3&#45;&#45;n5</title>
<path fill="none" stroke="#000000" d="M184.5344,-165.0738C150.0819,-167.5351 78.8569,-172.6236 44.4215,-175.0837"/>
</g>
<!-- n3&#45;&#45;n4 -->
<g id="edge28" class="edge">
<title>n3&#45;&#45;n4</title>
<path fill="none" stroke="#000000" d="M184.9884,-158.8201C149.5332,-149.7769 73.8256,-130.4671 38.449,-121.4439"/>
</g>
<!-- n2 -->
<g id="node9" class="node">
<title>n2</title>
<ellipse fill="none" stroke="#000000" cx="131.9695" cy="-122.2242" rx="19.4965" ry="19.4965"/>
<text text-anchor="middle" x="131.9695" y="-118.5242" font-family="Times,serif" font-size="14.00" fill="#000000">n2</text>
</g>
<!-- n2&#45;&#45;n9 -->
<g id="edge30" class="edge">
<title>n2&#45;&#45;n9</title>
<path fill="none" stroke="#000000" d="M120.7766,-138.3672C101.3656,-166.3632 61.6751,-223.6076 42.2292,-251.6538"/>
</g>
<!-- n2&#45;&#45;n10 -->
<g id="edge29" class="edge">
<title>n2&#45;&#45;n10</title>
<path fill="none" stroke="#000000" d="M132.2279,-141.7261C132.5869,-168.8147 133.2361,-217.8051 133.6255,-247.1951"/>
</g>
<!-- n2&#45;&#45;n8 -->
<g id="edge31" class="edge">
<title>n2&#45;&#45;n8</title>
<path fill="none" stroke="#000000" d="M115.2049,-112.2263C106.2292,-106.8734 95.2045,-100.2986 86.2218,-94.9415"/>
</g>
<!-- n2&#45;&#45;n7 -->
<g id="edge32" class="edge">
<title>n2&#45;&#45;n7</title>
<path fill="none" stroke="#000000" d="M122.7086,-139.8029C116.4793,-151.6271 108.3016,-167.1499 102.0862,-178.9477"/>
</g>
<!-- n2&#45;&#45;n6 -->
<g id="edge33" class="edge">
<title>n2&#45;&#45;n6</title>
<path fill="none" stroke="#000000" d="M140.2923,-140.1238C147.4279,-155.4699 157.6551,-177.4652 164.7871,-192.8036"/>
</g>
<!-- n2&#45;&#45;n5 -->
<g id="edge34" class="edge">
<title>n2&#45;&#45;n5</title>
<path fill="none" stroke="#000000" d="M114.2952,-131.1827C94.4639,-141.2347 62.4797,-157.4465 42.6376,-167.5039"/>
</g>
<!-- n2&#45;&#45;n4 -->
<g id="edge35" class="edge">
<title>n2&#45;&#45;n4</title>
<path fill="none" stroke="#000000" d="M112.3785,-121.2463C91.861,-120.2222 59.8166,-118.6228 39.2421,-117.5959"/>
</g>
<!-- n2&#45;&#45;n3 -->
<g id="edge36" class="edge">
<title>n2&#45;&#45;n3</title>
<path fill="none" stroke="#000000" d="M149.0498,-132.0486C160.5389,-138.657 175.6216,-147.3325 187.085,-153.9261"/>
</g>
<!-- n1 -->
<g id="node10" class="node">
<title>n1</title>
<ellipse fill="none" stroke="#000000" cx="202.2948" cy="-84.1113" rx="19.4965" ry="19.4965"/>
<text text-anchor="middle" x="202.2948" y="-80.4113" font-family="Times,serif" font-size="14.00" fill="#000000">n1</text>
</g>
<!-- n1&#45;&#45;n10 -->
<g id="edge37" class="edge">
<title>n1&#45;&#45;n10</title>
<path fill="none" stroke="#000000" d="M195.4914,-102.7538C182.8631,-137.3576 155.8444,-211.3936 142.1971,-248.7897"/>
</g>
<!-- n1&#45;&#45;n8 -->
<g id="edge38" class="edge">
<title>n1&#45;&#45;n8</title>
<path fill="none" stroke="#000000" d="M182.6873,-84.23C157.5634,-84.3822 114.2615,-84.6444 89.0989,-84.7968"/>
</g>
<!-- n1&#45;&#45;n7 -->
<g id="edge39" class="edge">
<title>n1&#45;&#45;n7</title>
<path fill="none" stroke="#000000" d="M188.4388,-98.3328C167.3947,-119.932 127.6124,-160.7637 106.6353,-182.2942"/>
</g>
<!-- n1&#45;&#45;n6 -->
<g id="edge40" class="edge">
<title>n1&#45;&#45;n6</title>
<path fill="none" stroke="#000000" d="M197.8603,-103.3338C192.3726,-127.1224 183.0807,-167.4013 177.5737,-191.2732"/>
</g>
<!-- n1&#45;&#45;n5 -->
<g id="edge41" class="edge">
<title>n1&#45;&#45;n5</title>
<path fill="none" stroke="#000000" d="M184.9661,-93.1357C151.0594,-110.7937 76.2993,-149.7273 42.3362,-167.4146"/>
</g>
<!-- n1&#45;&#45;n4 -->
<g id="edge42" class="edge">
<title>n1&#45;&#45;n4</title>
<path fill="none" stroke="#000000" d="M183.0778,-87.5278C147.9703,-93.7695 73.852,-106.9469 38.732,-113.1909"/>
</g>
<!-- n1&#45;&#45;n3 -->
<g id="edge43" class="edge">
<title>n1&#45;&#45;n3</title>
<path fill="none" stroke="#000000" d="M202.7269,-103.78C202.9958,-116.0215 203.3405,-131.7111 203.6096,-143.9619"/>
</g>
<!-- n1&#45;&#45;n2 -->
<g id="edge44" class="edge">
<title>n1&#45;&#45;n2</title>
<path fill="none" stroke="#000000" d="M184.911,-93.5324C174.0102,-99.4401 160.0159,-107.0244 149.1533,-112.9114"/>
</g>
<!-- n0 -->
<g id="node11" class="node">
<title>n0</title>
<ellipse fill="none" stroke="#000000" cx="124.4484" cy="-19.4983" rx="19.4965" ry="19.4965"/>
<text text-anchor="middle" x="124.4484" y="-15.7983" font-family="Times,serif" font-size="14.00" fill="#000000">n0</text>
</g>
<!-- n0&#45;&#45;n8 -->
<g id="edge45" class="edge">
<title>n0&#45;&#45;n8</title>
<path fill="none" stroke="#000000" d="M111.6834,-34.6708C102.7919,-45.2392 90.983,-59.2754 82.1068,-69.8257"/>
</g>
<!-- n0&#45;&#45;n7 -->
<g id="edge46" class="edge">
<title>n0&#45;&#45;n7</title>
<path fill="none" stroke="#000000" d="M121.0112,-38.7666C114.9411,-72.7953 102.392,-143.1439 96.3248,-177.1556"/>
</g>
<!-- n0&#45;&#45;n6 -->
<g id="edge47" class="edge">
<title>n0&#45;&#45;n6</title>
<path fill="none" stroke="#000000" d="M129.2909,-38.5281C138.616,-75.1731 158.965,-155.1394 168.2746,-191.7237"/>
</g>
<!-- n0&#45;&#45;n5 -->
<g id="edge48" class="edge">
<title>n0&#45;&#45;n5</title>
<path fill="none" stroke="#000000" d="M113.987,-36.0009C94.925,-66.071 54.7369,-129.467 35.5578,-159.7217"/>
</g>
<!-- n0&#45;&#45;n4 -->
<g id="edge49" class="edge">
<title>n0&#45;&#45;n4</title>
<path fill="none" stroke="#000000" d="M109.8555,-33.0013C89.8045,-51.5548 53.9529,-84.729 33.9672,-103.222"/>
</g>
<!-- n0&#45;&#45;n3 -->
<g id="edge50" class="edge">
<title>n0&#45;&#45;n3</title>
<path fill="none" stroke="#000000" d="M133.8915,-36.604C149.2101,-64.3531 179.3013,-118.8618 194.612,-146.5966"/>
</g>
<!-- n0&#45;&#45;n2 -->
<g id="edge51" class="edge">
<title>n0&#45;&#45;n2</title>
<path fill="none" stroke="#000000" d="M125.8985,-39.3049C127.2304,-57.4953 129.1934,-84.3072 130.5238,-102.4784"/>
</g>
<!-- n0&#45;&#45;n1 -->
<g id="edge52" class="edge">
<title>n0&#45;&#45;n1</title>
<path fill="none" stroke="#000000" d="M139.458,-31.9563C153.1544,-43.3245 173.3008,-60.0461 187.0657,-71.471"/>
</g>
</g>
</svg>
