<?xml version="1.0" standalone="yes"?>
<!-- SVG graphic -->
<svg xmlns='http://www.w3.org/2000/svg' xmlns:xlink='http://www.w3.org/1999/xlink'
width="70px" height="70px" preserveAspectRatio="xMinYMin meet" viewBox="0 0 70 70" version="1.1">
<rect x="5" y="0" width="2.5" height="2.5" fill="rgb(214,0,40)" tooltip="enable"><title>(1,0 1759)</title></rect><rect x="10" y="0" width="2.5" height="2.5" fill="rgb(136,0,118)" tooltip="enable"><title>(2,0 1114)</title></rect><rect x="15" y="0" width="2.5" height="2.5" fill="rgb(103,0,151)" tooltip="enable"><title>(3,0 851)</title></rect><rect x="20" y="0" width="2.5" height="2.5" fill="rgb(87,0,167)" tooltip="enable"><title>(4,0 713)</title></rect><rect x="25" y="0" width="2.5" height="2.5" fill="rgb(58,0,196)" tooltip="enable"><title>(5,0 482)</title></rect><rect x="30" y="0" width="2.5" height="2.5" fill="rgb(51,0,203)" tooltip="enable"><title>(6,0 425)</title></rect><rect x="35" y="0" width="2.5" height="2.5" fill="rgb(56,0,198)" tooltip="enable"><title>(7,0 465)</title></rect><rect x="40" y="0" width="2.5" height="2.5" fill="rgb(49,0,205)" tooltip="enable"><title>(8,0 405)</title></rect><rect x="45" y="0" width="2.5" height="2.5" fill="rgb(23,0,231)" tooltip="enable"><title>(9,0 189)</title></rect><rect x="50" y="0" width="2.5" height="2.5" fill="rgb(54,0,200)" tooltip="enable"><title>(10,0 443)</title></rect><rect x="10" y="5" width="2.5" height="2.5" fill="rgb(253,0,1)" tooltip="enable"><title>(2,1 2076)</title></rect><rect x="15" y="5" width="2.5" height="2.5" fill="rgb(190,0,64)" tooltip="enable"><title>(3,1 1558)</title></rect><rect x="20" y="5" width="2.5" height="2.5" fill="rgb(144,0,110)" tooltip="enable"><title>(4,1 1182)</title></rect><rect x="25" y="5" width="2.5" height="2.5" fill="rgb(93,0,161)" tooltip="enable"><title>(5,1 768)</title></rect><rect x="30" y="5" width="2.5" height="2.5" fill="rgb(77,0,177)" tooltip="enable"><title>(6,1 633)</title></rect><rect x="35" y="5" width="2.5" height="2.5" fill="rgb(78,0,176)" tooltip="enable"><title>(7,1 646)</title></rect><rect x="40" y="5" width="2.5" height="2.5" fill="rgb(57,0,197)" tooltip="enable"><title>(8,1 468)</title></rect><rect x="45" y="5" width="2.5" height="2.5" fill="rgb(27,0,227)" tooltip="enable"><title>(9,1 224)</title></rect><rect x="50" y="5" width="2.5" height="2.5" fill="rgb(51,0,203)" tooltip="enable"><title>(10,1 421)</title></rect><rect x="15" y="10" width="2.5" height="2.5" fill="rgb(255,0,0)" tooltip="enable"><title>(3,2 2087)</title></rect><rect x="20" y="10" width="2.5" height="2.5" fill="rgb(180,0,74)" tooltip="enable"><title>(4,2 1474)</title></rect><rect x="25" y="10" width="2.5" height="2.5" fill="rgb(117,0,137)" tooltip="enable"><title>(5,2 959)</title></rect><rect x="30" y="10" width="2.5" height="2.5" fill="rgb(98,0,156)" tooltip="enable"><title>(6,2 804)</title></rect><rect x="35" y="10" width="2.5" height="2.5" fill="rgb(92,0,162)" tooltip="enable"><title>(7,2 756)</title></rect><rect x="40" y="10" width="2.5" height="2.5" fill="rgb(64,0,190)" tooltip="enable"><title>(8,2 528)</title></rect><rect x="45" y="10" width="2.5" height="2.5" fill="rgb(27,0,227)" tooltip="enable"><title>(9,2 225)</title></rect><rect x="50" y="10" width="2.5" height="2.5" fill="rgb(54,0,200)" tooltip="enable"><title>(10,2 446)</title></rect><rect x="20" y="15" width="2.5" height="2.5" fill="rgb(214,0,40)" tooltip="enable"><title>(4,3 1753)</title></rect><rect x="25" y="15" width="2.5" height="2.5" fill="rgb(138,0,116)" tooltip="enable"><title>(5,3 1132)</title></rect><rect x="30" y="15" width="2.5" height="2.5" fill="rgb(113,0,141)" tooltip="enable"><title>(6,3 929)</title></rect><rect x="35" y="15" width="2.5" height="2.5" fill="rgb(92,0,162)" tooltip="enable"><title>(7,3 755)</title></rect><rect x="40" y="15" width="2.5" height="2.5" fill="rgb(68,0,186)" tooltip="enable"><title>(8,3 560)</title></rect><rect x="45" y="15" width="2.5" height="2.5" fill="rgb(25,0,229)" tooltip="enable"><title>(9,3 209)</title></rect><rect x="50" y="15" width="2.5" height="2.5" fill="rgb(54,0,200)" tooltip="enable"><title>(10,3 443)</title></rect><rect x="25" y="20" width="2.5" height="2.5" fill="rgb(185,0,69)" tooltip="enable"><title>(5,4 1516)</title></rect><rect x="30" y="20" width="2.5" height="2.5" fill="rgb(141,0,113)" tooltip="enable"><title>(6,4 1161)</title></rect><rect x="35" y="20" width="2.5" height="2.5" fill="rgb(122,0,132)" tooltip="enable"><title>(7,4 1002)</title></rect><rect x="40" y="20" width="2.5" height="2.5" fill="rgb(79,0,175)" tooltip="enable"><title>(8,4 652)</title></rect><rect x="45" y="20" width="2.5" height="2.5" fill="rgb(23,0,231)" tooltip="enable"><title>(9,4 191)</title></rect><rect x="50" y="20" width="2.5" height="2.5" fill="rgb(55,0,199)" tooltip="enable"><title>(10,4 456)</title></rect><rect x="30" y="25" width="2.5" height="2.5" fill="rgb(182,0,72)" tooltip="enable"><title>(6,5 1494)</title></rect><rect x="35" y="25" width="2.5" height="2.5" fill="rgb(136,0,118)" tooltip="enable"><title>(7,5 1115)</title></rect><rect x="40" y="25" width="2.5" height="2.5" fill="rgb(92,0,162)" tooltip="enable"><title>(8,5 758)</title></rect><rect x="45" y="25" width="2.5" height="2.5" fill="rgb(32,0,222)" tooltip="enable"><title>(9,5 268)</title></rect><rect x="50" y="25" width="2.5" height="2.5" fill="rgb(54,0,200)" tooltip="enable"><title>(10,5 447)</title></rect><rect x="35" y="30" width="2.5" height="2.5" fill="rgb(178,0,76)" tooltip="enable"><title>(7,6 1462)</title></rect><rect x="40" y="30" width="2.5" height="2.5" fill="rgb(118,0,136)" tooltip="enable"><title>(8,6 967)</title></rect><rect x="45" y="30" width="2.5" height="2.5" fill="rgb(37,0,217)" tooltip="enable"><title>(9,6 306)</title></rect><rect x="50" y="30" width="2.5" height="2.5" fill="rgb(58,0,196)" tooltip="enable"><title>(10,6 480)</title></rect><rect x="40" y="35" width="2.5" height="2.5" fill="rgb(175,0,79)" tooltip="enable"><title>(8,7 1440)</title></rect><rect x="45" y="35" width="2.5" height="2.5" fill="rgb(46,0,208)" tooltip="enable"><title>(9,7 384)</title></rect><rect x="50" y="35" width="2.5" height="2.5" fill="rgb(81,0,173)" tooltip="enable"><title>(10,7 666)</title></rect><rect x="45" y="40" width="2.5" height="2.5" fill="rgb(73,0,181)" tooltip="enable"><title>(9,8 605)</title></rect><rect x="50" y="40" width="2.5" height="2.5" fill="rgb(96,0,158)" tooltip="enable"><title>(10,8 792)</title></rect><rect x="50" y="45" width="2.5" height="2.5" fill="rgb(74,0,180)" tooltip="enable"><title>(10,9 611)</title></rect><text x="60" y="5" font-size="5" fill="black">0</text>
<text x="60" y="50" font-size="5" fill="black">11</text>
<polyline points="60,10,60,45" stroke="black" stroke-width="1" fill="none"/>
<text x="5" y="60" font-size="5" fill="black">0</text>
<text x="50" y="60" font-size="5" fill="black">11</text>
<polyline points="10,60,45,60" stroke="black" stroke-width="1" fill="none"/>
</svg>