<?xml version="1.0" encoding="UTF-8" standalone="no"?>
<!DOCTYPE svg PUBLIC "-//W3C//DTD SVG 1.1//EN"
 "http://www.w3.org/Graphics/SVG/1.1/DTD/svg11.dtd">
<!-- Generated by graphviz version 2.40.1 (20161225.0304)
 -->
<!-- Title: 1 Pages: 1 -->
<svg width="241pt" height="329pt"
 viewBox="0.00 0.00 240.52 328.68" xmlns="http://www.w3.org/2000/svg" xmlns:xlink="http://www.w3.org/1999/xlink">
<g id="graph0" class="graph" transform="scale(1 1) rotate(0) translate(4 324.6832)">
<title>1</title>
<polygon fill="#ffffff" stroke="transparent" points="-4,4 -4,-324.6832 236.5155,-324.6832 236.5155,4 -4,4"/>
<!-- n9 -->
<g id="node1" class="node">
<title>n9</title>
<ellipse fill="none" stroke="#000000" cx="46.1286" cy="-282.5348" rx="19.4965" ry="19.4965"/>
<text text-anchor="middle" x="46.1286" y="-278.8348" font-family="Times,serif" font-size="14.00" fill="#000000">n9</text>
</g>
<!-- n10 -->
<g id="node2" class="node">
<title>n10</title>
<ellipse fill="none" stroke="#000000" cx="169.7486" cy="-296.6353" rx="24.0958" ry="24.0958"/>
<text text-anchor="middle" x="169.7486" y="-292.9353" font-family="Times,serif" font-size="14.00" fill="#000000">n10</text>
</g>
<!-- n9&#45;&#45;n10 -->
<g id="edge1" class="edge">
<title>n9&#45;&#45;n10</title>
<path fill="none" stroke="#000000" d="M65.7166,-284.7691C87.3664,-287.2385 122.2542,-291.2179 145.5844,-293.879"/>
</g>
<!-- n8 -->
<g id="node3" class="node">
<title>n8</title>
<ellipse fill="none" stroke="#000000" cx="131.1344" cy="-127.9869" rx="19.4965" ry="19.4965"/>
<text text-anchor="middle" x="131.1344" y="-124.2869" font-family="Times,serif" font-size="14.00" fill="#000000">n8</text>
</g>
<!-- n8&#45;&#45;n9 -->
<g id="edge3" class="edge">
<title>n8&#45;&#45;n9</title>
<path fill="none" stroke="#000000" d="M121.7125,-145.1167C105.3726,-174.824 71.9619,-235.5676 55.5927,-265.3283"/>
</g>
<!-- n8&#45;&#45;n10 -->
<g id="edge2" class="edge">
<title>n8&#45;&#45;n10</title>
<path fill="none" stroke="#000000" d="M135.4889,-147.0052C142.5894,-178.0171 156.6423,-239.3933 164.3604,-273.1023"/>
</g>
<!-- n7 -->
<g id="node4" class="node">
<title>n7</title>
<ellipse fill="none" stroke="#000000" cx="106.1289" cy="-216.3801" rx="19.4965" ry="19.4965"/>
<text text-anchor="middle" x="106.1289" y="-212.6801" font-family="Times,serif" font-size="14.00" fill="#000000">n7</text>
</g>
<!-- n7&#45;&#45;n9 -->
<g id="edge5" class="edge">
<title>n7&#45;&#45;n9</title>
<path fill="none" stroke="#000000" d="M92.8129,-231.062C82.8698,-242.0249 69.3415,-256.9409 59.4074,-267.894"/>
</g>
<!-- n7&#45;&#45;n10 -->
<g id="edge4" class="edge">
<title>n7&#45;&#45;n10</title>
<path fill="none" stroke="#000000" d="M118.3954,-231.8541C128.7222,-244.8812 143.5356,-263.5681 154.601,-277.5269"/>
</g>
<!-- n7&#45;&#45;n8 -->
<g id="edge6" class="edge">
<title>n7&#45;&#45;n8</title>
<path fill="none" stroke="#000000" d="M111.5547,-197.2001C115.7777,-182.272 121.6068,-161.6664 125.8051,-146.8258"/>
</g>
<!-- n6 -->
<g id="node5" class="node">
<title>n6</title>
<ellipse fill="none" stroke="#000000" cx="187.2591" cy="-205.2503" rx="19.4965" ry="19.4965"/>
<text text-anchor="middle" x="187.2591" y="-201.5503" font-family="Times,serif" font-size="14.00" fill="#000000">n6</text>
</g>
<!-- n6&#45;&#45;n9 -->
<g id="edge8" class="edge">
<title>n6&#45;&#45;n9</title>
<path fill="none" stroke="#000000" d="M169.9537,-214.7269C142.867,-229.5599 90.7492,-258.1001 63.5756,-272.9807"/>
</g>
<!-- n6&#45;&#45;n10 -->
<g id="edge7" class="edge">
<title>n6&#45;&#45;n10</title>
<path fill="none" stroke="#000000" d="M183.5456,-224.6307C180.8551,-238.672 177.201,-257.7421 174.3293,-272.7294"/>
</g>
<!-- n6&#45;&#45;n8 -->
<g id="edge9" class="edge">
<title>n6&#45;&#45;n8</title>
<path fill="none" stroke="#000000" d="M175.63,-189.2412C165.9976,-175.9809 152.3768,-157.23 142.7486,-143.9754"/>
</g>
<!-- n6&#45;&#45;n7 -->
<g id="edge10" class="edge">
<title>n6&#45;&#45;n7</title>
<path fill="none" stroke="#000000" d="M167.6197,-207.9445C154.864,-209.6944 138.3069,-211.9658 125.5874,-213.7107"/>
</g>
<!-- n5 -->
<g id="node6" class="node">
<title>n5</title>
<ellipse fill="none" stroke="#000000" cx="19.4983" cy="-186.7667" rx="19.4965" ry="19.4965"/>
<text text-anchor="middle" x="19.4983" y="-183.0667" font-family="Times,serif" font-size="14.00" fill="#000000">n5</text>
</g>
<!-- n5&#45;&#45;n9 -->
<g id="edge12" class="edge">
<title>n5&#45;&#45;n9</title>
<path fill="none" stroke="#000000" d="M24.7596,-205.6874C29.4282,-222.4769 36.2129,-246.8759 40.8783,-263.6534"/>
</g>
<!-- n5&#45;&#45;n10 -->
<g id="edge11" class="edge">
<title>n5&#45;&#45;n10</title>
<path fill="none" stroke="#000000" d="M35.2937,-198.3169C62.8697,-218.4815 119.7273,-260.0579 149.9116,-282.1297"/>
</g>
<!-- n5&#45;&#45;n8 -->
<g id="edge13" class="edge">
<title>n5&#45;&#45;n8</title>
<path fill="none" stroke="#000000" d="M36.9414,-177.5824C57.9141,-166.5396 92.8958,-148.1207 113.8137,-137.1067"/>
</g>
<!-- n5&#45;&#45;n7 -->
<g id="edge14" class="edge">
<title>n5&#45;&#45;n7</title>
<path fill="none" stroke="#000000" d="M38.2958,-193.1924C52.9262,-198.1936 73.1209,-205.0968 87.6656,-210.0687"/>
</g>
<!-- n5&#45;&#45;n6 -->
<g id="edge15" class="edge">
<title>n5&#45;&#45;n6</title>
<path fill="none" stroke="#000000" d="M39.0709,-188.9232C71.3967,-192.4848 135.5674,-199.555 167.8111,-203.1075"/>
</g>
<!-- n4 -->
<g id="node7" class="node">
<title>n4</title>
<ellipse fill="none" stroke="#000000" cx="59.3382" cy="-139.7702" rx="19.4965" ry="19.4965"/>
<text text-anchor="middle" x="59.3382" y="-136.0702" font-family="Times,serif" font-size="14.00" fill="#000000">n4</text>
</g>
<!-- n4&#45;&#45;n9 -->
<g id="edge17" class="edge">
<title>n4&#45;&#45;n9</title>
<path fill="none" stroke="#000000" d="M57.5292,-159.3217C55.0137,-186.5081 50.4846,-235.457 47.9582,-262.7614"/>
</g>
<!-- n4&#45;&#45;n10 -->
<g id="edge16" class="edge">
<title>n4&#45;&#45;n10</title>
<path fill="none" stroke="#000000" d="M70.7382,-155.9667C91.1241,-184.9299 133.7524,-245.4939 155.8298,-276.8601"/>
</g>
<!-- n4&#45;&#45;n8 -->
<g id="edge18" class="edge">
<title>n4&#45;&#45;n8</title>
<path fill="none" stroke="#000000" d="M78.9568,-136.5504C89.0874,-134.8877 101.4124,-132.8649 111.5395,-131.2028"/>
</g>
<!-- n4&#45;&#45;n7 -->
<g id="edge19" class="edge">
<title>n4&#45;&#45;n7</title>
<path fill="none" stroke="#000000" d="M69.7226,-156.7724C77.5304,-169.5562 88.1732,-186.9814 95.9345,-199.689"/>
</g>
<!-- n4&#45;&#45;n6 -->
<g id="edge20" class="edge">
<title>n4&#45;&#45;n6</title>
<path fill="none" stroke="#000000" d="M76.8568,-148.7376C101.2166,-161.2069 145.0761,-183.6577 169.5415,-196.181"/>
</g>
<!-- n4&#45;&#45;n5 -->
<g id="edge21" class="edge">
<title>n4&#45;&#45;n5</title>
<path fill="none" stroke="#000000" d="M46.5133,-154.8989C41.9639,-160.2655 36.8466,-166.3021 32.2991,-171.6664"/>
</g>
<!-- n3 -->
<g id="node8" class="node">
<title>n3</title>
<ellipse fill="none" stroke="#000000" cx="213.0172" cy="-140.7046" rx="19.4965" ry="19.4965"/>
<text text-anchor="middle" x="213.0172" y="-137.0046" font-family="Times,serif" font-size="14.00" fill="#000000">n3</text>
</g>
<!-- n3&#45;&#45;n9 -->
<g id="edge22" class="edge">
<title>n3&#45;&#45;n9</title>
<path fill="none" stroke="#000000" d="M197.9126,-153.5413C166.1389,-180.5441 92.7172,-242.9416 61.0789,-269.8294"/>
</g>
<!-- n3&#45;&#45;n8 -->
<g id="edge23" class="edge">
<title>n3&#45;&#45;n8</title>
<path fill="none" stroke="#000000" d="M193.6121,-137.6907C180.6539,-135.6781 163.6719,-133.0405 150.6839,-131.0232"/>
</g>
<!-- n3&#45;&#45;n7 -->
<g id="edge24" class="edge">
<title>n3&#45;&#45;n7</title>
<path fill="none" stroke="#000000" d="M196.7832,-152.1981C176.5762,-166.5044 142.2802,-190.7855 122.1655,-205.0264"/>
</g>
<!-- n3&#45;&#45;n6 -->
<g id="edge25" class="edge">
<title>n3&#45;&#45;n6</title>
<path fill="none" stroke="#000000" d="M205.7049,-159.0282C202.1947,-167.824 198.0014,-178.3317 194.5006,-187.1043"/>
</g>
<!-- n3&#45;&#45;n5 -->
<g id="edge26" class="edge">
<title>n3&#45;&#45;n5</title>
<path fill="none" stroke="#000000" d="M193.7544,-145.2896C156.6607,-154.1188 75.7154,-173.3857 38.6832,-182.2003"/>
</g>
<!-- n3&#45;&#45;n4 -->
<g id="edge27" class="edge">
<title>n3&#45;&#45;n4</title>
<path fill="none" stroke="#000000" d="M193.241,-140.5844C163.7327,-140.405 108.5027,-140.0691 79.0385,-139.89"/>
</g>
<!-- n2 -->
<g id="node9" class="node">
<title>n2</title>
<ellipse fill="none" stroke="#000000" cx="23.4513" cy="-78.5208" rx="19.4965" ry="19.4965"/>
<text text-anchor="middle" x="23.4513" y="-74.8208" font-family="Times,serif" font-size="14.00" fill="#000000">n2</text>
</g>
<!-- n2&#45;&#45;n9 -->
<g id="edge28" class="edge">
<title>n2&#45;&#45;n9</title>
<path fill="none" stroke="#000000" d="M25.6257,-98.0825C29.9603,-137.0779 39.6317,-224.0856 43.9608,-263.0323"/>
</g>
<!-- n2&#45;&#45;n8 -->
<g id="edge29" class="edge">
<title>n2&#45;&#45;n8</title>
<path fill="none" stroke="#000000" d="M41.233,-86.6891C61.1849,-95.8544 93.3636,-110.6362 113.3263,-119.8064"/>
</g>
<!-- n2&#45;&#45;n7 -->
<g id="edge30" class="edge">
<title>n2&#45;&#45;n7</title>
<path fill="none" stroke="#000000" d="M33.5892,-95.425C49.4573,-121.884 79.9891,-172.7938 95.9081,-199.3376"/>
</g>
<!-- n2&#45;&#45;n6 -->
<g id="edge31" class="edge">
<title>n2&#45;&#45;n6</title>
<path fill="none" stroke="#000000" d="M39.1579,-90.6721C70.3882,-114.8334 139.9717,-168.6665 171.3594,-192.9495"/>
</g>
<!-- n2&#45;&#45;n5 -->
<g id="edge32" class="edge">
<title>n2&#45;&#45;n5</title>
<path fill="none" stroke="#000000" d="M22.7354,-98.1233C22.0235,-117.6193 20.9369,-147.3716 20.2222,-166.9443"/>
</g>
<!-- n2&#45;&#45;n4 -->
<g id="edge33" class="edge">
<title>n2&#45;&#45;n4</title>
<path fill="none" stroke="#000000" d="M33.4478,-95.5822C38.4253,-104.0774 44.4252,-114.3177 49.3953,-122.8003"/>
</g>
<!-- n2&#45;&#45;n3 -->
<g id="edge34" class="edge">
<title>n2&#45;&#45;n3</title>
<path fill="none" stroke="#000000" d="M42.3206,-84.7105C78.6566,-96.6299 157.9485,-122.6403 194.2242,-134.5399"/>
</g>
<!-- n1 -->
<g id="node10" class="node">
<title>n1</title>
<ellipse fill="none" stroke="#000000" cx="193.9546" cy="-70.8663" rx="19.4965" ry="19.4965"/>
<text text-anchor="middle" x="193.9546" y="-67.1663" font-family="Times,serif" font-size="14.00" fill="#000000">n1</text>
</g>
<!-- n1&#45;&#45;n10 -->
<g id="edge35" class="edge">
<title>n1&#45;&#45;n10</title>
<path fill="none" stroke="#000000" d="M191.8488,-90.5069C187.4205,-131.8103 177.1557,-227.5492 172.336,-272.5033"/>
</g>
<!-- n1&#45;&#45;n8 -->
<g id="edge36" class="edge">
<title>n1&#45;&#45;n8</title>
<path fill="none" stroke="#000000" d="M179.3845,-84.1145C169.2357,-93.3424 155.7569,-105.5983 145.6255,-114.8105"/>
</g>
<!-- n1&#45;&#45;n7 -->
<g id="edge37" class="edge">
<title>n1&#45;&#45;n7</title>
<path fill="none" stroke="#000000" d="M183.708,-87.8434C166.7849,-115.8824 133.1904,-171.5434 116.3102,-199.5112"/>
</g>
<!-- n1&#45;&#45;n6 -->
<g id="edge38" class="edge">
<title>n1&#45;&#45;n6</title>
<path fill="none" stroke="#000000" d="M192.981,-90.4069C191.7116,-115.8852 189.5038,-160.1962 188.2338,-185.6861"/>
</g>
<!-- n1&#45;&#45;n5 -->
<g id="edge39" class="edge">
<title>n1&#45;&#45;n5</title>
<path fill="none" stroke="#000000" d="M177.5422,-81.7699C144.2074,-103.916 68.931,-153.926 35.74,-175.9765"/>
</g>
<!-- n1&#45;&#45;n4 -->
<g id="edge40" class="edge">
<title>n1&#45;&#45;n4</title>
<path fill="none" stroke="#000000" d="M176.3559,-79.8743C150.5567,-93.0797 102.7429,-117.5534 76.9413,-130.76"/>
</g>
<!-- n1&#45;&#45;n3 -->
<g id="edge41" class="edge">
<title>n1&#45;&#45;n3</title>
<path fill="none" stroke="#000000" d="M199.1636,-89.9499C201.8533,-99.8042 205.1257,-111.7931 207.8146,-121.6441"/>
</g>
<!-- n1&#45;&#45;n2 -->
<g id="edge42" class="edge">
<title>n1&#45;&#45;n2</title>
<path fill="none" stroke="#000000" d="M174.3957,-71.7444C141.5937,-73.217 75.8686,-76.1676 43.044,-77.6412"/>
</g>
<!-- n0 -->
<g id="node11" class="node">
<title>n0</title>
<ellipse fill="none" stroke="#000000" cx="109.1062" cy="-19.4983" rx="19.4965" ry="19.4965"/>
<text text-anchor="middle" x="109.1062" y="-15.7983" font-family="Times,serif" font-size="14.00" fill="#000000">n0</text>
</g>
<!-- n0&#45;&#45;n8 -->
<g id="edge43" class="edge">
<title>n0&#45;&#45;n8</title>
<path fill="none" stroke="#000000" d="M112.9937,-38.6441C116.9955,-58.353 123.197,-88.8953 127.2117,-108.6675"/>
</g>
<!-- n0&#45;&#45;n7 -->
<g id="edge44" class="edge">
<title>n0&#45;&#45;n7</title>
<path fill="none" stroke="#000000" d="M108.8099,-39.0958C108.2392,-76.8341 106.9938,-159.1861 106.4241,-196.8618"/>
</g>
<!-- n0&#45;&#45;n6 -->
<g id="edge45" class="edge">
<title>n0&#45;&#45;n6</title>
<path fill="none" stroke="#000000" d="M116.7422,-37.6472C131.6832,-73.1586 164.6263,-151.4572 179.5922,-187.0277"/>
</g>
<!-- n0&#45;&#45;n5 -->
<g id="edge46" class="edge">
<title>n0&#45;&#45;n5</title>
<path fill="none" stroke="#000000" d="M99.8541,-36.7689C82.6831,-68.8215 46.0684,-137.169 28.8343,-169.3394"/>
</g>
<!-- n0&#45;&#45;n4 -->
<g id="edge47" class="edge">
<title>n0&#45;&#45;n4</title>
<path fill="none" stroke="#000000" d="M101.5475,-37.765C92.139,-60.5021 76.1705,-99.0924 66.805,-121.7257"/>
</g>
<!-- n0&#45;&#45;n3 -->
<g id="edge48" class="edge">
<title>n0&#45;&#45;n3</title>
<path fill="none" stroke="#000000" d="M121.8478,-34.3605C141.7911,-57.6233 180.1642,-102.3834 200.1715,-125.7208"/>
</g>
<!-- n0&#45;&#45;n2 -->
<g id="edge49" class="edge">
<title>n0&#45;&#45;n2</title>
<path fill="none" stroke="#000000" d="M92.9952,-30.6C77.7784,-41.0855 55.0695,-56.7335 39.7813,-67.2682"/>
</g>
<!-- n0&#45;&#45;n1 -->
<g id="edge50" class="edge">
<title>n0&#45;&#45;n1</title>
<path fill="none" stroke="#000000" d="M125.8695,-29.6469C140.7446,-38.6525 162.3616,-51.7396 177.2261,-60.7387"/>
</g>
</g>
</svg>
