<?xml version="1.0" standalone="yes"?>
<!-- SVG graphic -->
<svg xmlns='http://www.w3.org/2000/svg' xmlns:xlink='http://www.w3.org/1999/xlink'
 version="1.1">
<rect x="0" y="0" width="6" height="200" stroke="black" stroke-width="1" fill="blue" tooltip="enable"><title>(0,3408)</title></rect><rect x="6" y="5.86855" width="6" height="194.131" stroke="black" stroke-width="1" fill="blue" tooltip="enable"><title>(0.039012,3308)</title></rect><rect x="12" y="35.7394" width="6" height="164.261" stroke="black" stroke-width="1" fill="blue" tooltip="enable"><title>(0.0780241,2799)</title></rect><rect x="18" y="47.4178" width="6" height="152.582" stroke="black" stroke-width="1" fill="blue" tooltip="enable"><title>(0.117036,2600)</title></rect><rect x="24" y="71.1268" width="6" height="128.873" stroke="black" stroke-width="1" fill="blue" tooltip="enable"><title>(0.156048,2196)</title></rect><rect x="30" y="92.4296" width="6" height="107.57" stroke="black" stroke-width="1" fill="blue" tooltip="enable"><title>(0.19506,1833)</title></rect><rect x="36" y="106.221" width="6" height="93.7793" stroke="black" stroke-width="1" fill="blue" tooltip="enable"><title>(0.234072,1598)</title></rect><rect x="42" y="120.07" width="6" height="79.9296" stroke="black" stroke-width="1" fill="blue" tooltip="enable"><title>(0.273084,1362)</title></rect><rect x="48" y="135.387" width="6" height="64.6127" stroke="black" stroke-width="1" fill="blue" tooltip="enable"><title>(0.312096,1101)</title></rect><rect x="54" y="144.073" width="6" height="55.9272" stroke="black" stroke-width="1" fill="blue" tooltip="enable"><title>(0.351108,953)</title></rect><rect x="60" y="152.465" width="6" height="47.5352" stroke="black" stroke-width="1" fill="blue" tooltip="enable"><title>(0.39012,810)</title></rect><rect x="66" y="159.566" width="6" height="40.4343" stroke="black" stroke-width="1" fill="blue" tooltip="enable"><title>(0.429132,689)</title></rect><rect x="72" y="164.437" width="6" height="35.5634" stroke="black" stroke-width="1" fill="blue" tooltip="enable"><title>(0.468144,606)</title></rect><rect x="78" y="172.653" width="6" height="27.3474" stroke="black" stroke-width="1" fill="blue" tooltip="enable"><title>(0.507156,466)</title></rect><rect x="84" y="173.005" width="6" height="26.9953" stroke="black" stroke-width="1" fill="blue" tooltip="enable"><title>(0.546169,460)</title></rect><rect x="90" y="178.345" width="6" height="21.6549" stroke="black" stroke-width="1" fill="blue" tooltip="enable"><title>(0.585181,369)</title></rect><rect x="96" y="183.979" width="6" height="16.0211" stroke="black" stroke-width="1" fill="blue" tooltip="enable"><title>(0.624193,273)</title></rect><rect x="102" y="182.864" width="6" height="17.1362" stroke="black" stroke-width="1" fill="blue" tooltip="enable"><title>(0.663205,292)</title></rect><rect x="108" y="184.977" width="6" height="15.0235" stroke="black" stroke-width="1" fill="blue" tooltip="enable"><title>(0.702217,256)</title></rect><rect x="114" y="186.561" width="6" height="13.439" stroke="black" stroke-width="1" fill="blue" tooltip="enable"><title>(0.741229,229)</title></rect><rect x="120" y="188.674" width="6" height="11.3263" stroke="black" stroke-width="1" fill="blue" tooltip="enable"><title>(0.780241,193)</title></rect><rect x="126" y="189.202" width="6" height="10.7981" stroke="black" stroke-width="1" fill="blue" tooltip="enable"><title>(0.819253,184)</title></rect><rect x="132" y="190.61" width="6" height="9.38967" stroke="black" stroke-width="1" fill="blue" tooltip="enable"><title>(0.858265,160)</title></rect><rect x="138" y="191.432" width="6" height="8.56808" stroke="black" stroke-width="1" fill="blue" tooltip="enable"><title>(0.897277,146)</title></rect><rect x="144" y="191.96" width="6" height="8.03991" stroke="black" stroke-width="1" fill="blue" tooltip="enable"><title>(0.936289,137)</title></rect><rect x="150" y="193.134" width="6" height="6.8662" stroke="black" stroke-width="1" fill="blue" tooltip="enable"><title>(0.975301,117)</title></rect><rect x="156" y="194.366" width="6" height="5.6338" stroke="black" stroke-width="1" fill="blue" tooltip="enable"><title>(1.01431,96)</title></rect><rect x="162" y="195.775" width="6" height="4.22535" stroke="black" stroke-width="1" fill="blue" tooltip="enable"><title>(1.05333,72)</title></rect><rect x="168" y="194.718" width="6" height="5.28169" stroke="black" stroke-width="1" fill="blue" tooltip="enable"><title>(1.09234,90)</title></rect><rect x="174" y="195.833" width="6" height="4.16667" stroke="black" stroke-width="1" fill="blue" tooltip="enable"><title>(1.13135,71)</title></rect><rect x="180" y="195.833" width="6" height="4.16667" stroke="black" stroke-width="1" fill="blue" tooltip="enable"><title>(1.17036,71)</title></rect><rect x="186" y="196.772" width="6" height="3.2277" stroke="black" stroke-width="1" fill="blue" tooltip="enable"><title>(1.20937,55)</title></rect><rect x="192" y="196.948" width="6" height="3.05164" stroke="black" stroke-width="1" fill="blue" tooltip="enable"><title>(1.24839,52)</title></rect><rect x="198" y="196.244" width="6" height="3.75587" stroke="black" stroke-width="1" fill="blue" tooltip="enable"><title>(1.2874,64)</title></rect><rect x="204" y="197.3" width="6" height="2.69953" stroke="black" stroke-width="1" fill="blue" tooltip="enable"><title>(1.32641,46)</title></rect><rect x="210" y="197.124" width="6" height="2.87559" stroke="black" stroke-width="1" fill="blue" tooltip="enable"><title>(1.36542,49)</title></rect><rect x="216" y="197.946" width="6" height="2.05399" stroke="black" stroke-width="1" fill="blue" tooltip="enable"><title>(1.40443,35)</title></rect><rect x="222" y="197.242" width="6" height="2.75822" stroke="black" stroke-width="1" fill="blue" tooltip="enable"><title>(1.44345,47)</title></rect><rect x="228" y="198.415" width="6" height="1.58451" stroke="black" stroke-width="1" fill="blue" tooltip="enable"><title>(1.48246,27)</title></rect><rect x="234" y="198.239" width="6" height="1.76056" stroke="black" stroke-width="1" fill="blue" tooltip="enable"><title>(1.52147,30)</title></rect><rect x="240" y="198.415" width="6" height="1.58451" stroke="black" stroke-width="1" fill="blue" tooltip="enable"><title>(1.56048,27)</title></rect><rect x="246" y="198.415" width="6" height="1.58451" stroke="black" stroke-width="1" fill="blue" tooltip="enable"><title>(1.59949,27)</title></rect><rect x="252" y="198.474" width="6" height="1.52582" stroke="black" stroke-width="1" fill="blue" tooltip="enable"><title>(1.63851,26)</title></rect><rect x="258" y="198.357" width="6" height="1.64319" stroke="black" stroke-width="1" fill="blue" tooltip="enable"><title>(1.67752,28)</title></rect><rect x="264" y="198.709" width="6" height="1.29108" stroke="black" stroke-width="1" fill="blue" tooltip="enable"><title>(1.71653,22)</title></rect><rect x="270" y="198.944" width="6" height="1.05634" stroke="black" stroke-width="1" fill="blue" tooltip="enable"><title>(1.75554,18)</title></rect><rect x="276" y="199.061" width="6" height="0.938967" stroke="black" stroke-width="1" fill="blue" tooltip="enable"><title>(1.79455,16)</title></rect><rect x="282" y="198.533" width="6" height="1.46714" stroke="black" stroke-width="1" fill="blue" tooltip="enable"><title>(1.83357,25)</title></rect><rect x="288" y="199.707" width="6" height="0.293427" stroke="black" stroke-width="1" fill="blue" tooltip="enable"><title>(1.87258,5)</title></rect><rect x="294" y="199.237" width="6" height="0.762911" stroke="black" stroke-width="1" fill="blue" tooltip="enable"><title>(1.91159,13)</title></rect><rect x="300" y="199.296" width="6" height="0.704225" stroke="black" stroke-width="1" fill="blue" tooltip="enable"><title>(1.9506,12)</title></rect><rect x="306" y="199.707" width="6" height="0.293427" stroke="black" stroke-width="1" fill="blue" tooltip="enable"><title>(1.98961,5)</title></rect><rect x="312" y="199.061" width="6" height="0.938967" stroke="black" stroke-width="1" fill="blue" tooltip="enable"><title>(2.02863,16)</title></rect><rect x="318" y="199.472" width="6" height="0.528169" stroke="black" stroke-width="1" fill="blue" tooltip="enable"><title>(2.06764,9)</title></rect><rect x="324" y="199.531" width="6" height="0.469484" stroke="black" stroke-width="1" fill="blue" tooltip="enable"><title>(2.10665,8)</title></rect><rect x="330" y="199.531" width="6" height="0.469484" stroke="black" stroke-width="1" fill="blue" tooltip="enable"><title>(2.14566,8)</title></rect><rect x="336" y="199.472" width="6" height="0.528169" stroke="black" stroke-width="1" fill="blue" tooltip="enable"><title>(2.18467,9)</title></rect><rect x="342" y="199.707" width="6" height="0.293427" stroke="black" stroke-width="1" fill="blue" tooltip="enable"><title>(2.22369,5)</title></rect><rect x="348" y="199.589" width="6" height="0.410798" stroke="black" stroke-width="1" fill="blue" tooltip="enable"><title>(2.2627,7)</title></rect><rect x="354" y="199.824" width="6" height="0.176056" stroke="black" stroke-width="1" fill="blue" tooltip="enable"><title>(2.30171,3)</title></rect><rect x="360" y="199.765" width="6" height="0.234742" stroke="black" stroke-width="1" fill="blue" tooltip="enable"><title>(2.34072,4)</title></rect><rect x="366" y="199.707" width="6" height="0.293427" stroke="black" stroke-width="1" fill="blue" tooltip="enable"><title>(2.37973,5)</title></rect><rect x="372" y="199.883" width="6" height="0.117371" stroke="black" stroke-width="1" fill="blue" tooltip="enable"><title>(2.41875,2)</title></rect><rect x="378" y="199.707" width="6" height="0.293427" stroke="black" stroke-width="1" fill="blue" tooltip="enable"><title>(2.45776,5)</title></rect><rect x="384" y="199.707" width="6" height="0.293427" stroke="black" stroke-width="1" fill="blue" tooltip="enable"><title>(2.49677,5)</title></rect><rect x="390" y="199.824" width="6" height="0.176056" stroke="black" stroke-width="1" fill="blue" tooltip="enable"><title>(2.53578,3)</title></rect><rect x="396" y="199.883" width="6" height="0.117371" stroke="black" stroke-width="1" fill="blue" tooltip="enable"><title>(2.57479,2)</title></rect><rect x="402" y="199.531" width="6" height="0.469484" stroke="black" stroke-width="1" fill="blue" tooltip="enable"><title>(2.61381,8)</title></rect><rect x="408" y="199.941" width="6" height="0.0586854" stroke="black" stroke-width="1" fill="blue" tooltip="enable"><title>(2.65282,1)</title></rect><rect x="414" y="200" width="6" height="0" stroke="black" stroke-width="1" fill="blue" tooltip="enable"><title>(2.69183,0)</title></rect><rect x="420" y="199.765" width="6" height="0.234742" stroke="black" stroke-width="1" fill="blue" tooltip="enable"><title>(2.73084,4)</title></rect><rect x="426" y="199.765" width="6" height="0.234742" stroke="black" stroke-width="1" fill="blue" tooltip="enable"><title>(2.76985,4)</title></rect><rect x="432" y="199.765" width="6" height="0.234742" stroke="black" stroke-width="1" fill="blue" tooltip="enable"><title>(2.80887,4)</title></rect><rect x="438" y="199.765" width="6" height="0.234742" stroke="black" stroke-width="1" fill="blue" tooltip="enable"><title>(2.84788,4)</title></rect><rect x="444" y="199.707" width="6" height="0.293427" stroke="black" stroke-width="1" fill="blue" tooltip="enable"><title>(2.88689,5)</title></rect><rect x="450" y="199.941" width="6" height="0.0586854" stroke="black" stroke-width="1" fill="blue" tooltip="enable"><title>(2.9259,1)</title></rect><rect x="456" y="199.883" width="6" height="0.117371" stroke="black" stroke-width="1" fill="blue" tooltip="enable"><title>(2.96492,2)</title></rect><rect x="462" y="199.941" width="6" height="0.0586854" stroke="black" stroke-width="1" fill="blue" tooltip="enable"><title>(3.00393,1)</title></rect><rect x="468" y="199.883" width="6" height="0.117371" stroke="black" stroke-width="1" fill="blue" tooltip="enable"><title>(3.04294,2)</title></rect><rect x="474" y="199.765" width="6" height="0.234742" stroke="black" stroke-width="1" fill="blue" tooltip="enable"><title>(3.08195,4)</title></rect><rect x="480" y="199.941" width="6" height="0.0586854" stroke="black" stroke-width="1" fill="blue" tooltip="enable"><title>(3.12096,1)</title></rect><rect x="486" y="200" width="6" height="0" stroke="black" stroke-width="1" fill="blue" tooltip="enable"><title>(3.15998,0)</title></rect><rect x="492" y="199.824" width="6" height="0.176056" stroke="black" stroke-width="1" fill="blue" tooltip="enable"><title>(3.19899,3)</title></rect><rect x="498" y="199.941" width="6" height="0.0586854" stroke="black" stroke-width="1" fill="blue" tooltip="enable"><title>(3.238,1)</title></rect><rect x="504" y="199.941" width="6" height="0.0586854" stroke="black" stroke-width="1" fill="blue" tooltip="enable"><title>(3.27701,1)</title></rect><rect x="510" y="200" width="6" height="0" stroke="black" stroke-width="1" fill="blue" tooltip="enable"><title>(3.31602,0)</title></rect><rect x="516" y="199.941" width="6" height="0.0586854" stroke="black" stroke-width="1" fill="blue" tooltip="enable"><title>(3.35504,1)</title></rect><rect x="522" y="199.941" width="6" height="0.0586854" stroke="black" stroke-width="1" fill="blue" tooltip="enable"><title>(3.39405,1)</title></rect><rect x="528" y="199.941" width="6" height="0.0586854" stroke="black" stroke-width="1" fill="blue" tooltip="enable"><title>(3.43306,1)</title></rect><rect x="534" y="200" width="6" height="0" stroke="black" stroke-width="1" fill="blue" tooltip="enable"><title>(3.47207,0)</title></rect><rect x="540" y="200" width="6" height="0" stroke="black" stroke-width="1" fill="blue" tooltip="enable"><title>(3.51108,0)</title></rect><rect x="546" y="199.941" width="6" height="0.0586854" stroke="black" stroke-width="1" fill="blue" tooltip="enable"><title>(3.5501,1)</title></rect><rect x="552" y="200" width="6" height="0" stroke="black" stroke-width="1" fill="blue" tooltip="enable"><title>(3.58911,0)</title></rect><rect x="558" y="199.941" width="6" height="0.0586854" stroke="black" stroke-width="1" fill="blue" tooltip="enable"><title>(3.62812,1)</title></rect><rect x="564" y="199.941" width="6" height="0.0586854" stroke="black" stroke-width="1" fill="blue" tooltip="enable"><title>(3.66713,1)</title></rect><rect x="570" y="199.883" width="6" height="0.117371" stroke="black" stroke-width="1" fill="blue" tooltip="enable"><title>(3.70614,2)</title></rect><rect x="576" y="199.883" width="6" height="0.117371" stroke="black" stroke-width="1" fill="blue" tooltip="enable"><title>(3.74516,2)</title></rect><rect x="582" y="200" width="6" height="0" stroke="black" stroke-width="1" fill="blue" tooltip="enable"><title>(3.78417,0)</title></rect><rect x="588" y="200" width="6" height="0" stroke="black" stroke-width="1" fill="blue" tooltip="enable"><title>(3.82318,0)</title></rect><rect x="594" y="200" width="6" height="0" stroke="black" stroke-width="1" fill="blue" tooltip="enable"><title>(3.86219,0)</title></rect><text x="30" y="240" font-size="20" fill="black">0</text>
<text x="600" y="240" font-size="20" fill="black">3.9012</text>
<polyline points="0,220,600,220" stroke="black" stroke-width="1" fill="none"/>
<text x="720" y="20" font-size="20" fill="black">3408</text>
<text x="720" y="200" font-size="20" fill="black">0</text>
<polyline points="660,0,660,200" stroke="black" stroke-width="1" fill="none"/>
</svg>